<mxfile host="app.diagrams.net" agent="Mozilla/5.0 (Windows NT 10.0; Win64; x64) AppleWebKit/537.36 (KHTML, like Gecko) Chrome/133.0.0.0 Safari/537.36" version="26.1.0">
  <diagram name="UC1" id="z5j7NBGGGdvuK_UEvRAk">
    <mxGraphModel dx="2314" dy="921" grid="1" gridSize="10" guides="1" tooltips="1" connect="1" arrows="1" fold="1" page="1" pageScale="1" pageWidth="827" pageHeight="1169" math="0" shadow="0">
      <root>
        <mxCell id="0" />
        <mxCell id="1" parent="0" />
        <mxCell id="etLbLdyzsT7lr8LaU-6j-27" value="" style="endArrow=none;html=1;rounded=0;" edge="1" parent="1" source="yFNGmXiaL20jZcpAk-IG-47" target="etLbLdyzsT7lr8LaU-6j-26">
          <mxGeometry width="50" height="50" relative="1" as="geometry">
            <mxPoint x="-950" y="550" as="sourcePoint" />
            <mxPoint x="-578" y="675" as="targetPoint" />
          </mxGeometry>
        </mxCell>
        <mxCell id="94UF97ZLEKz3bhL5moaH-1" value="non-member" style="shape=umlActor;verticalLabelPosition=bottom;verticalAlign=top;html=1;" parent="1" vertex="1">
          <mxGeometry x="-1020" y="270" width="60" height="100" as="geometry" />
        </mxCell>
        <mxCell id="A4RQ38QJs6wwwlrkrCxn-14" value="" style="endArrow=none;html=1;rounded=0;entryX=0;entryY=0.5;entryDx=0;entryDy=0;" parent="1" source="94UF97ZLEKz3bhL5moaH-1" target="A4RQ38QJs6wwwlrkrCxn-6" edge="1">
          <mxGeometry width="50" height="50" relative="1" as="geometry">
            <mxPoint x="180" y="360" as="sourcePoint" />
            <mxPoint x="230" y="310" as="targetPoint" />
          </mxGeometry>
        </mxCell>
        <mxCell id="NhTRIXsJ5zk7w_TpCh82-2" value="recipe service" style="swimlane;whiteSpace=wrap;html=1;startSize=23;" parent="1" vertex="1">
          <mxGeometry x="-870" y="80" width="600" height="660" as="geometry" />
        </mxCell>
        <mxCell id="A4RQ38QJs6wwwlrkrCxn-33" value="redundant&lt;br&gt;error&lt;br&gt;output" style="ellipse;whiteSpace=wrap;html=1;" parent="NhTRIXsJ5zk7w_TpCh82-2" vertex="1">
          <mxGeometry x="200" y="120" width="140" height="70" as="geometry" />
        </mxCell>
        <mxCell id="A4RQ38QJs6wwwlrkrCxn-7" value="id&lt;br&gt;duplicate&lt;br&gt;chek" style="ellipse;whiteSpace=wrap;html=1;" parent="NhTRIXsJ5zk7w_TpCh82-2" vertex="1">
          <mxGeometry x="240" y="40" width="140" height="70" as="geometry" />
        </mxCell>
        <mxCell id="A4RQ38QJs6wwwlrkrCxn-6" value="creat account" style="ellipse;whiteSpace=wrap;html=1;" parent="NhTRIXsJ5zk7w_TpCh82-2" vertex="1">
          <mxGeometry x="23" y="40" width="140" height="70" as="geometry" />
        </mxCell>
        <mxCell id="A4RQ38QJs6wwwlrkrCxn-8" value="&amp;lt;&amp;lt;inclued&amp;gt;&amp;gt;" style="endArrow=open;endSize=12;dashed=1;html=1;rounded=0;exitX=1;exitY=0.5;exitDx=0;exitDy=0;entryX=0;entryY=0.5;entryDx=0;entryDy=0;" parent="NhTRIXsJ5zk7w_TpCh82-2" source="A4RQ38QJs6wwwlrkrCxn-6" target="A4RQ38QJs6wwwlrkrCxn-7" edge="1">
          <mxGeometry width="160" relative="1" as="geometry">
            <mxPoint x="260" y="270" as="sourcePoint" />
            <mxPoint x="420" y="270" as="targetPoint" />
          </mxGeometry>
        </mxCell>
        <mxCell id="A4RQ38QJs6wwwlrkrCxn-34" value="&amp;lt;&amp;lt;extend&amp;gt;&amp;gt;" style="endArrow=open;endSize=12;dashed=1;html=1;rounded=0;" parent="NhTRIXsJ5zk7w_TpCh82-2" source="A4RQ38QJs6wwwlrkrCxn-33" target="A4RQ38QJs6wwwlrkrCxn-6" edge="1">
          <mxGeometry width="160" relative="1" as="geometry">
            <mxPoint x="380" y="90" as="sourcePoint" />
            <mxPoint x="490" y="170" as="targetPoint" />
          </mxGeometry>
        </mxCell>
        <mxCell id="yFNGmXiaL20jZcpAk-IG-3" value="login" style="ellipse;whiteSpace=wrap;html=1;" parent="NhTRIXsJ5zk7w_TpCh82-2" vertex="1">
          <mxGeometry x="23" y="310" width="140" height="70" as="geometry" />
        </mxCell>
        <mxCell id="yFNGmXiaL20jZcpAk-IG-4" value="check&lt;br&gt;id &amp;amp; password" style="ellipse;whiteSpace=wrap;html=1;" parent="NhTRIXsJ5zk7w_TpCh82-2" vertex="1">
          <mxGeometry x="230" y="310" width="140" height="70" as="geometry" />
        </mxCell>
        <mxCell id="yFNGmXiaL20jZcpAk-IG-5" value="&amp;lt;&amp;lt;inclued&amp;gt;&amp;gt;" style="endArrow=open;endSize=12;dashed=1;html=1;rounded=0;exitX=1;exitY=0.5;exitDx=0;exitDy=0;entryX=0;entryY=0.5;entryDx=0;entryDy=0;" parent="NhTRIXsJ5zk7w_TpCh82-2" source="yFNGmXiaL20jZcpAk-IG-3" target="yFNGmXiaL20jZcpAk-IG-4" edge="1">
          <mxGeometry width="160" relative="1" as="geometry">
            <mxPoint x="163" y="265" as="sourcePoint" />
            <mxPoint x="240" y="265" as="targetPoint" />
          </mxGeometry>
        </mxCell>
        <mxCell id="yFNGmXiaL20jZcpAk-IG-8" value="search&lt;div&gt;recipe&lt;/div&gt;" style="ellipse;whiteSpace=wrap;html=1;" parent="NhTRIXsJ5zk7w_TpCh82-2" vertex="1">
          <mxGeometry x="33" y="160" width="140" height="70" as="geometry" />
        </mxCell>
        <mxCell id="yFNGmXiaL20jZcpAk-IG-11" value="id &amp;amp; password&lt;br&gt;error output" style="ellipse;whiteSpace=wrap;html=1;" parent="NhTRIXsJ5zk7w_TpCh82-2" vertex="1">
          <mxGeometry x="230" y="400" width="140" height="70" as="geometry" />
        </mxCell>
        <mxCell id="yFNGmXiaL20jZcpAk-IG-12" value="&amp;lt;&amp;lt;extend&amp;gt;&amp;gt;" style="endArrow=open;endSize=12;dashed=1;html=1;rounded=0;" parent="NhTRIXsJ5zk7w_TpCh82-2" source="yFNGmXiaL20jZcpAk-IG-11" target="yFNGmXiaL20jZcpAk-IG-3" edge="1">
          <mxGeometry width="160" relative="1" as="geometry">
            <mxPoint x="218" y="322" as="sourcePoint" />
            <mxPoint x="145" y="289" as="targetPoint" />
          </mxGeometry>
        </mxCell>
        <mxCell id="yFNGmXiaL20jZcpAk-IG-13" value="no search results&lt;br&gt;error output" style="ellipse;whiteSpace=wrap;html=1;" parent="NhTRIXsJ5zk7w_TpCh82-2" vertex="1">
          <mxGeometry x="260" y="205" width="140" height="70" as="geometry" />
        </mxCell>
        <mxCell id="yFNGmXiaL20jZcpAk-IG-14" value="&amp;lt;&amp;lt;extend&amp;gt;&amp;gt;" style="endArrow=open;endSize=12;dashed=1;html=1;rounded=0;" parent="NhTRIXsJ5zk7w_TpCh82-2" source="yFNGmXiaL20jZcpAk-IG-13" target="yFNGmXiaL20jZcpAk-IG-8" edge="1">
          <mxGeometry width="160" relative="1" as="geometry">
            <mxPoint x="246" y="143" as="sourcePoint" />
            <mxPoint x="157" y="107" as="targetPoint" />
          </mxGeometry>
        </mxCell>
        <mxCell id="yFNGmXiaL20jZcpAk-IG-53" value="favorite&lt;br&gt;&amp;amp;&lt;br&gt;save" style="ellipse;whiteSpace=wrap;html=1;" parent="NhTRIXsJ5zk7w_TpCh82-2" vertex="1">
          <mxGeometry x="33" y="400" width="140" height="70" as="geometry" />
        </mxCell>
        <mxCell id="etLbLdyzsT7lr8LaU-6j-1" value="recommend&lt;br&gt;ingredient-based&lt;br&gt;recipes" style="ellipse;whiteSpace=wrap;html=1;" vertex="1" parent="NhTRIXsJ5zk7w_TpCh82-2">
          <mxGeometry x="130" y="470" width="140" height="70" as="geometry" />
        </mxCell>
        <mxCell id="etLbLdyzsT7lr8LaU-6j-4" value="recommend&lt;br&gt;AI-tailored&lt;br&gt;recipes" style="ellipse;whiteSpace=wrap;html=1;" vertex="1" parent="NhTRIXsJ5zk7w_TpCh82-2">
          <mxGeometry x="190" y="550" width="140" height="70" as="geometry" />
        </mxCell>
        <mxCell id="etLbLdyzsT7lr8LaU-6j-23" value="save user&lt;br&gt;&lt;div&gt;information&lt;/div&gt;" style="ellipse;whiteSpace=wrap;html=1;" vertex="1" parent="NhTRIXsJ5zk7w_TpCh82-2">
          <mxGeometry x="440" y="135" width="140" height="70" as="geometry" />
        </mxCell>
        <mxCell id="etLbLdyzsT7lr8LaU-6j-24" value="&amp;lt;&amp;lt;inclued&amp;gt;&amp;gt;" style="endArrow=open;endSize=12;dashed=1;html=1;rounded=0;" edge="1" parent="NhTRIXsJ5zk7w_TpCh82-2" source="A4RQ38QJs6wwwlrkrCxn-7" target="etLbLdyzsT7lr8LaU-6j-23">
          <mxGeometry width="160" relative="1" as="geometry">
            <mxPoint x="173" y="85" as="sourcePoint" />
            <mxPoint x="250" y="85" as="targetPoint" />
          </mxGeometry>
        </mxCell>
        <mxCell id="etLbLdyzsT7lr8LaU-6j-26" value="modify&lt;br&gt;account&lt;br&gt;information" style="ellipse;whiteSpace=wrap;html=1;" vertex="1" parent="NhTRIXsJ5zk7w_TpCh82-2">
          <mxGeometry x="400" y="275" width="140" height="70" as="geometry" />
        </mxCell>
        <mxCell id="NhTRIXsJ5zk7w_TpCh82-3" value="account management system" style="shape=umlActor;verticalLabelPosition=bottom;verticalAlign=top;html=1;" parent="1" vertex="1">
          <mxGeometry x="-200" y="200" width="60" height="100" as="geometry" />
        </mxCell>
        <mxCell id="yFNGmXiaL20jZcpAk-IG-9" value="" style="endArrow=none;html=1;rounded=0;entryX=0;entryY=0.5;entryDx=0;entryDy=0;" parent="1" source="94UF97ZLEKz3bhL5moaH-1" target="yFNGmXiaL20jZcpAk-IG-8" edge="1">
          <mxGeometry width="50" height="50" relative="1" as="geometry">
            <mxPoint x="-960" y="459" as="sourcePoint" />
            <mxPoint x="-808" y="353" as="targetPoint" />
          </mxGeometry>
        </mxCell>
        <mxCell id="yFNGmXiaL20jZcpAk-IG-47" value="member" style="shape=umlActor;verticalLabelPosition=bottom;verticalAlign=top;html=1;" parent="1" vertex="1">
          <mxGeometry x="-1020" y="480" width="60" height="100" as="geometry" />
        </mxCell>
        <mxCell id="yFNGmXiaL20jZcpAk-IG-51" value="" style="endArrow=none;html=1;rounded=0;" parent="1" source="yFNGmXiaL20jZcpAk-IG-47" target="yFNGmXiaL20jZcpAk-IG-8" edge="1">
          <mxGeometry width="50" height="50" relative="1" as="geometry">
            <mxPoint x="-950" y="361" as="sourcePoint" />
            <mxPoint x="-827" y="445" as="targetPoint" />
          </mxGeometry>
        </mxCell>
        <mxCell id="yFNGmXiaL20jZcpAk-IG-52" value="" style="endArrow=none;html=1;rounded=0;" parent="1" source="yFNGmXiaL20jZcpAk-IG-47" target="yFNGmXiaL20jZcpAk-IG-3" edge="1">
          <mxGeometry width="50" height="50" relative="1" as="geometry">
            <mxPoint x="-950" y="506" as="sourcePoint" />
            <mxPoint x="-785" y="317" as="targetPoint" />
          </mxGeometry>
        </mxCell>
        <mxCell id="yFNGmXiaL20jZcpAk-IG-54" value="" style="endArrow=none;html=1;rounded=0;" parent="1" source="yFNGmXiaL20jZcpAk-IG-47" target="yFNGmXiaL20jZcpAk-IG-53" edge="1">
          <mxGeometry width="50" height="50" relative="1" as="geometry">
            <mxPoint x="-950" y="535" as="sourcePoint" />
            <mxPoint x="-843" y="516" as="targetPoint" />
          </mxGeometry>
        </mxCell>
        <mxCell id="etLbLdyzsT7lr8LaU-6j-3" value="" style="endArrow=none;html=1;rounded=0;" edge="1" parent="1" source="yFNGmXiaL20jZcpAk-IG-47" target="etLbLdyzsT7lr8LaU-6j-1">
          <mxGeometry width="50" height="50" relative="1" as="geometry">
            <mxPoint x="-950" y="542" as="sourcePoint" />
            <mxPoint x="-809" y="551" as="targetPoint" />
          </mxGeometry>
        </mxCell>
        <mxCell id="etLbLdyzsT7lr8LaU-6j-5" value="" style="endArrow=none;html=1;rounded=0;" edge="1" parent="1" source="yFNGmXiaL20jZcpAk-IG-47" target="etLbLdyzsT7lr8LaU-6j-4">
          <mxGeometry width="50" height="50" relative="1" as="geometry">
            <mxPoint x="-950" y="550" as="sourcePoint" />
            <mxPoint x="-758" y="615" as="targetPoint" />
          </mxGeometry>
        </mxCell>
        <mxCell id="etLbLdyzsT7lr8LaU-6j-25" value="" style="endArrow=none;html=1;rounded=0;" edge="1" parent="1" source="etLbLdyzsT7lr8LaU-6j-23" target="NhTRIXsJ5zk7w_TpCh82-3">
          <mxGeometry width="50" height="50" relative="1" as="geometry">
            <mxPoint x="-130" y="390" as="sourcePoint" />
            <mxPoint x="51" y="524" as="targetPoint" />
          </mxGeometry>
        </mxCell>
        <mxCell id="etLbLdyzsT7lr8LaU-6j-28" value="" style="endArrow=none;html=1;rounded=0;" edge="1" parent="1" source="etLbLdyzsT7lr8LaU-6j-26" target="NhTRIXsJ5zk7w_TpCh82-3">
          <mxGeometry width="50" height="50" relative="1" as="geometry">
            <mxPoint x="-280" y="260" as="sourcePoint" />
            <mxPoint x="-140" y="260" as="targetPoint" />
          </mxGeometry>
        </mxCell>
      </root>
    </mxGraphModel>
  </diagram>
</mxfile>
